<?xml version="1.0" encoding="utf-8"?>
<!-- Generator: Adobe Illustrator 25.0.1, SVG Export Plug-In . SVG Version: 6.00 Build 0)  -->
<svg version="1.1" id="Capa_1" xmlns="http://www.w3.org/2000/svg" xmlns:xlink="http://www.w3.org/1999/xlink" x="0px" y="0px"
	 viewBox="0 0 28.6 28.6" style="enable-background:new 0 0 28.6 28.6;" xml:space="preserve">
<style type="text/css">
	.st0{fill:#407BFF;}
</style>
<g>
	<path class="st0" d="M14.3,0C7.4,0,1.8,5.6,1.8,12.5c0,4.7,2.6,8.8,6.5,11l-0.1,5.2L14,25c0.1,0,0.2,0,0.3,0
		c6.9,0,12.5-5.6,12.5-12.5S21.2,0,14.3,0z M13.8,20c-1.1,0-1.9-0.8-1.9-1.9c0-1.1,0.8-1.9,1.9-1.9c1.1,0,1.9,0.8,1.9,1.9
		C15.6,19.2,14.9,20,13.8,20z M16.3,12.2c-0.8,0.9-1.1,1.7-1.1,2.6v0.4h-2.8l0-0.5c-0.1-1.1,0.3-2.2,1.2-3.3
		c0.7-0.8,1.2-1.5,1.2-2.2c0-0.7-0.5-1.2-1.5-1.3c-0.7,0-1.5,0.3-2.1,0.6l-0.7-2.3c0.8-0.4,2-0.9,3.5-0.9c2.8,0,4,1.5,4,3.3
		C18.1,10.2,17.1,11.3,16.3,12.2z"/>
</g>
</svg>
