<?xml version="1.0" encoding="utf-8"?>
<!-- Generator: Adobe Illustrator 25.0.1, SVG Export Plug-In . SVG Version: 6.00 Build 0)  -->
<svg version="1.1" id="Layer_1" xmlns="http://www.w3.org/2000/svg" xmlns:xlink="http://www.w3.org/1999/xlink" x="0px" y="0px"
	 viewBox="0 0 511 511" style="enable-background:new 0 0 511 511;" xml:space="preserve">
<style type="text/css">
	.st0{fill:#407BFF;}
</style>
<path class="st0" d="M133.1,394.6c-34.1,0-64.4-21.8-75.4-54.3l-0.7-2.4c-2.6-8.6-3.7-15.8-3.7-23.1V169.5L1.6,342
	c-6.6,25.4,8.5,51.7,33.9,58.7l329.2,88.2c4.1,1.1,8.2,1.6,12.3,1.6c21.2,0,40.6-14.1,46-34.8l19.2-61H133.1z"/>
<path class="st0" d="M191.6,171c23.5,0,42.6-19.1,42.6-42.6s-19.1-42.6-42.6-42.6S149,104.9,149,128.4S168.1,171,191.6,171z"/>
<path class="st0" d="M457.8,21.9H138.4c-29.3,0-53.2,23.9-53.2,53.2v234.2c0,29.3,23.9,53.2,53.2,53.2h319.4
	c29.3,0,53.2-23.9,53.2-53.2V75.2C511,45.8,487.1,21.9,457.8,21.9z M138.4,64.5h319.4c5.9,0,10.6,4.8,10.6,10.6v151.2l-67.3-78.5
	c-7.1-8.4-17.5-12.8-28.6-13.1c-11,0.1-21.4,5-28.4,13.4l-79.1,94.9l-25.8-25.7c-14.6-14.6-38.3-14.6-52.8,0l-58.8,58.7v-201
	C127.7,69.3,132.5,64.5,138.4,64.5z"/>
</svg>
