<?xml version="1.0" encoding="utf-8"?>
<!-- Generator: Adobe Illustrator 24.3.0, SVG Export Plug-In . SVG Version: 6.00 Build 0)  -->
<svg version="1.1" id="Glyph" xmlns="http://www.w3.org/2000/svg" xmlns:xlink="http://www.w3.org/1999/xlink" x="0px" y="0px"
	 viewBox="0 0 512 512" style="enable-background:new 0 0 512 512;" xml:space="preserve">
<style type="text/css">
	.st0{fill:#407BFF;}
</style>
<path class="st0" d="M16,376h64v112H16V376z"/>
<path class="st0" d="M292,344c24.3,0,44,19.7,44,44c0,4.2-0.6,8.2-1.7,12h22.2l95.8-44.2c5.4-2.5,11.3-3.8,17.3-3.8h1.2
	c3.2,0,6.3,0.4,9.2,1.1V136c0-17.7-14.3-32-32-32h-48V56c0-17.7-14.3-32-32-32h-96c-17.7,0-32,14.3-32,32v48h-48
	c-17.7,0-32,14.3-32,32v225.4l17.4-17.4L292,344z M272,56h96v48h-96V56z M320,152c48.6,0,88,39.4,88,88s-39.4,88-88,88
	s-88-39.4-88-88S271.4,152,320,152z"/>
<path class="st0" d="M304,288h32v-32h32v-32h-32v-32h-32v32h-32v32h32V288z"/>
<path class="st0" d="M470.8,368h-1.2c-3.7,0-7.3,0.8-10.6,2.3L360,416h-68c15.5,0,28-12.5,28-28s-12.5-28-28-28H184l-32,32H96v88
	h272l115.1-64.8c7.9-4.5,12.9-12.9,12.9-22C496,379.3,484.7,368,470.8,368z M288,432h-56c-4.4,0-8-3.6-8-8s3.6-8,8-8h56
	c4.4,0,8,3.6,8,8S292.4,432,288,432z"/>
</svg>
