<?xml version="1.0" encoding="utf-8"?>
<!-- Generator: Adobe Illustrator 25.0.1, SVG Export Plug-In . SVG Version: 6.00 Build 0)  -->
<svg version="1.1" id="OBJECTS" xmlns="http://www.w3.org/2000/svg" xmlns:xlink="http://www.w3.org/1999/xlink" x="0px" y="0px"
	 viewBox="0 0 500 424.5" style="enable-background:new 0 0 500 424.5;" xml:space="preserve">
<style type="text/css">
	.st0{opacity:0.2;fill:#FFFFFF;}
	.st1{opacity:0.43;fill:#FFFFFF;}
	.st2{fill:#2A229E;}
	.st3{fill:#407BFF;}
	.st4{fill:none;stroke:#000000;stroke-miterlimit:10;}
	.st5{opacity:0.27;clip-path:url(#XMLID_2_);fill:#C8E6FF;}
	.st6{fill:none;stroke:#FFFFFF;stroke-width:0.4862;stroke-miterlimit:10;}
	.st7{opacity:0.11;fill:#2A229E;}
	.st8{fill:#FFFFFF;}
	.st9{clip-path:url(#XMLID_6_);fill:#1A6DFF;}
	.st10{opacity:0.47;clip-path:url(#XMLID_7_);fill:#6FBCFF;}
	.st11{fill:#F8FDFF;}
	.st12{fill:#B55B52;}
	.st13{fill:#FFC6BA;}
	.st14{opacity:0.47;fill:#6FBCFF;}
	.st15{fill:none;stroke:#453E6B;stroke-width:0.8094;stroke-miterlimit:10;}
	.st16{clip-path:url(#SVGID_2_);fill:#407BFF;}
	.st17{clip-path:url(#SVGID_4_);fill:#407BFF;}
</style>
<circle class="st0" cx="162.9" cy="55.2" r="39.1"/>
<ellipse transform="matrix(0.7071 -0.7071 0.7071 0.7071 8.6615 131.3433)" class="st1" cx="162.9" cy="55.2" rx="46.9" ry="46.9"/>
<g>
	<path class="st2" d="M162.9,94.8c-21.8,0-39.6-17.7-39.6-39.6c0-21.8,17.7-39.6,39.6-39.6c21.8,0,39.6,17.7,39.6,39.6
		C202.4,77,184.7,94.8,162.9,94.8z M162.9,16.5c-21.3,0-38.7,17.4-38.7,38.7c0,21.3,17.4,38.7,38.7,38.7s38.7-17.4,38.7-38.7
		C201.6,33.9,184.2,16.5,162.9,16.5z"/>
</g>
<ellipse transform="matrix(0.9321 -0.3622 0.3622 0.9321 -41.6205 167.2662)" class="st0" cx="425.3" cy="194.6" rx="39.1" ry="39.1"/>
<circle class="st1" cx="425.3" cy="194.6" r="46.8"/>
<g>
	<path class="st2" d="M425.3,234.1c-21.8,0-39.5-17.7-39.5-39.5s17.7-39.5,39.5-39.5c21.8,0,39.5,17.7,39.5,39.5
		S447,234.1,425.3,234.1z M425.3,156c-21.3,0-38.6,17.3-38.6,38.6c0,21.3,17.3,38.6,38.6,38.6c21.3,0,38.6-17.3,38.6-38.6
		C463.9,173.3,446.6,156,425.3,156z"/>
</g>
<circle class="st0" cx="339.7" cy="69.6" r="41.9"/>
<circle class="st1" cx="339.7" cy="69.6" r="50.2"/>
<g>
	<path class="st2" d="M339.7,112c-23.4,0-42.4-19-42.4-42.4c0-23.4,19-42.4,42.4-42.4c23.4,0,42.4,19,42.4,42.4
		C382.1,93,363.1,112,339.7,112z M339.7,28.2c-22.8,0-41.4,18.6-41.4,41.4s18.6,41.4,41.4,41.4c22.8,0,41.4-18.6,41.4-41.4
		S362.5,28.2,339.7,28.2z"/>
</g>
<g>
	<path class="st3" d="M170.6,69c4.1,2.7,9.7,1.6,12.4-2.5c2.7-4.1,1.6-9.7-2.5-12.4L168.4,46l-9.9,15L170.6,69z"/>
	<path class="st3" d="M166.5,44.7l-12.2-8.1c-4.1-2.7-9.7-1.6-12.4,2.5c-2.7,4.1-1.6,9.7,2.5,12.4l12.2,8.1L166.5,44.7z M149.4,38.1
		c0.5-0.8,1.6-1,2.3-0.5c0.8,0.5,1,1.6,0.5,2.3c-0.5,0.8-1.6,1-2.3,0.5C149.1,39.9,148.8,38.8,149.4,38.1z M159,45.8
		c0.5-0.8,1.6-1,2.3-0.5c0.8,0.5,1,1.6,0.5,2.3c-0.5,0.8-1.6,1-2.3,0.5C158.7,47.6,158.5,46.6,159,45.8z M151.6,44.9
		c0.5-0.8,1.6-1,2.3-0.5c0.8,0.5,1,1.6,0.5,2.3c-0.5,0.8-1.6,1-2.3,0.5C151.3,46.7,151,45.7,151.6,44.9z M143.5,44.9
		c0.5-0.8,1.6-1,2.3-0.5c0.8,0.5,1,1.6,0.5,2.3c-0.5,0.8-1.6,1-2.3,0.5C143.2,46.8,143,45.7,143.5,44.9z M152.8,51.1
		c0.5-0.8,1.6-1,2.3-0.5s1,1.6,0.5,2.3c-0.5,0.8-1.6,1-2.3,0.5C152.5,53,152.3,51.9,152.8,51.1z"/>
</g>
<circle class="st0" cx="75.6" cy="340.6" r="35.9"/>
<circle class="st1" cx="75.6" cy="340.6" r="43"/>
<g>
	<path class="st2" d="M75.6,376.9c-20,0-36.3-16.3-36.3-36.3c0-20,16.3-36.3,36.3-36.3c20,0,36.3,16.3,36.3,36.3
		C111.9,360.6,95.6,376.9,75.6,376.9z M75.6,305.1C56,305.1,40,321,40,340.6c0,19.6,15.9,35.5,35.5,35.5s35.5-15.9,35.5-35.5
		C111.1,321,95.1,305.1,75.6,305.1z"/>
</g>
<g>
	<g>
		<polygon class="st3" points="54.9,358.3 54.9,358.3 60.8,353.2 61.2,353.7 		"/>
		<path class="st3" d="M78.1,346l-1.6,1.2l-5.5-7.3l0.9-0.7l8.6-6.5l5.5,7.3l-7.5,5.6l0.9,0.9l8.4-6.4l-6.8-9L61.5,346l-1.7,8.3
			l8.4,0.7l11.1-8.4C79.1,346.5,78.6,346.3,78.1,346z"/>
		<path class="st3" d="M75.4,342.6l-3.4-3.3l-0.9,0.7l5.5,7.3l1.6-1.2C77.1,345.4,75.9,344.3,75.4,342.6z"/>
		<path class="st3" d="M78.1,346c0.5,0.3,1,0.5,1.3,0.6l0.1-0.1l-0.9-0.9L78.1,346z"/>
		<path class="st3" d="M75.3,342c-0.6-3.1-3.3-2.8-3.3-2.8l3.4,3.3C75.3,342.4,75.3,342.2,75.3,342z"/>
	</g>
	<path class="st3" d="M87.8,341.1L80.2,331c-0.2-0.3-0.2-0.8,0.1-1v0c0.3-0.2,0.8-0.2,1,0.1l7.6,10.1c0.2,0.3,0.2,0.8-0.1,1l0,0
		C88.5,341.5,88,341.4,87.8,341.1z"/>
	<path class="st3" d="M95.7,335.2L88,325.1c-0.2-0.3-0.2-0.8,0.1-1l0,0c0.3-0.2,0.8-0.2,1,0.1l7.6,10.1c0.2,0.3,0.2,0.8-0.1,1l0,0
		C96.3,335.6,95.9,335.5,95.7,335.2z"/>
	
		<rect x="86.6" y="328.1" transform="matrix(0.6026 0.7981 -0.7981 0.6026 300.5712 60.9984)" class="st3" width="4.9" height="8.4"/>
</g>
<ellipse transform="matrix(0.2395 -0.9709 0.9709 0.2395 -118.3959 182.0017)" class="st0" cx="57" cy="166.6" rx="39.1" ry="39.1"/>
<ellipse transform="matrix(0.1652 -0.9863 0.9863 0.1652 -116.7212 195.2548)" class="st1" cx="57" cy="166.6" rx="46.8" ry="46.8"/>
<g>
	<path class="st2" d="M57,206.1c-21.8,0-39.5-17.7-39.5-39.5s17.7-39.5,39.5-39.5c21.8,0,39.5,17.7,39.5,39.5S78.8,206.1,57,206.1z
		 M57,127.9c-21.3,0-38.6,17.3-38.6,38.6s17.3,38.6,38.6,38.6c21.3,0,38.6-17.3,38.6-38.6S78.3,127.9,57,127.9z"/>
</g>
<g>
	<polygon class="st3" points="59.8,165.7 57,165.7 57,162.8 54.1,162.8 54.1,165.7 51.2,165.7 51.2,168.6 54.1,168.6 54.1,171.5 
		57,171.5 57,168.6 59.8,168.6 	"/>
	<path class="st3" d="M72.5,154.2H40.3c-1.8,0-3.3,1.5-3.3,3.3v20.1c0,1.8,1.5,3.3,3.3,3.3h32.2c1.8,0,3.3-1.5,3.3-3.3v-20.1
		C75.8,155.7,74.4,154.2,72.5,154.2z M56,174.1c-3.8,0-6.9-3.1-6.9-6.9c0-3.8,3.1-6.9,6.9-6.9c3.8,0,6.9,3.1,6.9,6.9
		C62.9,171,59.8,174.1,56,174.1z"/>
	<g>
		<path class="st3" d="M65.3,155.9h-1.7v-1.6c0-1.7-0.7-2.7-0.9-2.7H50.2c-0.2,0-0.9,1-0.9,2.7v1.6h-1.7v-1.6c0-2.5,1.1-4.4,2.6-4.4
			h12.5c1.5,0,2.6,1.9,2.6,4.4V155.9z"/>
	</g>
</g>
<g>
	<path class="st3" d="M332.6,63.2l6.4,16.6l6.4-25.4L351,73h10.2c1.1-2.5,1.8-5.2,1.8-8c0-8.2-6-14.8-13.5-14.8
		c-3.9,0-7.3,1.8-9.8,4.6c-2.5-2.9-5.9-4.6-9.8-4.6c-7.4,0-13.8,6.6-13.5,14.8c0.1,2.6,0.8,5.1,1.8,7.5h8.9L332.6,63.2z"/>
	<path class="st3" d="M345.6,61.9l-6.1,24.5l-7.2-18.6l-3.8,6.6h-9.1c6.2,11.3,20.4,19.7,20.4,19.7s14.3-7.9,20.5-19.1h-10.7
		L345.6,61.9z"/>
</g>
<g>
	<path class="st3" d="M451.9,183.3l-0.4-1.9c-1.2,0.2-2.6,0.2-4,0l-10.5-9.7c-0.2-1.3-0.2-2.6,0.1-3.8l-1.9-0.4
		c-0.7,3.6,0.5,8,1.3,10.5c-3.6-1-8.8-1.6-12.7,1.6c-4.6,3.8-2.8,10.6-1.4,14.3c-5.6-2.2-10.7-1.6-14,1.6c-3,2.9-3.9,7.4-2.4,11.4
		c0.2,0.6,0.4,1.1,0.6,1.7c-4.8-1-8.2-1.1-8.4-1.1v1.9c0,0,0.9,0,2.4,0.1l7.9,7.1c0.4,2.7,0.4,4.4,0.4,4.4l1.9,0
		c0-0.1,0-1.5-0.3-3.6l0.1-0.1l-0.1-0.1c-0.2-1.6-0.5-3.7-1.1-5.9c1,0.3,2,0.6,3,1c1.3,0.5,2.7,0.7,4,0.7c2.8,0,5.5-1.1,7.5-3.1
		c2.9-3.1,3.7-7.5,2.2-12.5c3.8,1.2,9.4,2.1,12.8-1.9c1.4-1.7,2.1-3.7,2.3-5.6l0.2-0.2l-0.2-0.1c0.3-3.1-0.5-6.2-1.2-8.2
		C441.4,182,447.4,184.3,451.9,183.3z M428.8,179.5l10.5,9.7c-0.1,1.5-0.4,2.9-1.2,4.2l-13-12.1c0,0,0,0,0.1-0.1
		C426.3,180.3,427.5,179.8,428.8,179.5z M408.4,215.3l-6-5.4c1.4,0.2,3.1,0.5,5,0.9C407.8,212.5,408.2,214,408.4,215.3z
		 M413.2,210.6c-1.5-0.6-2.9-1-4.3-1.4c-0.3-0.9-0.6-1.9-1-2.9c-0.7-1.8-0.8-3.6-0.4-5.3l10.8,10C416.8,211.4,415,211.3,413.2,210.6
		z M422.6,208.7c-0.9,0.9-1.9,1.6-3.1,2L407.9,200c0.4-1.1,1.1-2.2,2-3c1-0.9,2.1-1.6,3.4-2l11.3,10.4
		C424.1,206.7,423.5,207.8,422.6,208.7z M424.8,204.4l-10.4-9.6c2.3-0.4,5,0,7.8,1.1c0.2,0.1,0.7,0.4,1.6,0.8
		C424.9,199.5,425.2,202.1,424.8,204.4z M425.2,195.1c-0.6-1.2-2.4-5.2-2.3-8.9l11,10.2C430.9,197.1,427.4,196,425.2,195.1z
		 M435,196.1L423.1,185c0.2-1.1,0.6-2.2,1.3-3l13.1,12.2c-0.1,0.1-0.1,0.1-0.1,0.2C436.7,195.2,435.9,195.8,435,196.1z M430,179.3
		c2.8-0.2,5.6,0.5,7.5,1.1c0.5,1.2,1.7,4.2,1.8,7.4L430,179.3z M439,178.9c-0.3-0.6-1.1-2.9-1.6-5.5l8.5,7.8
		c-2.9-0.6-5.3-1.6-5.3-1.6C440.4,179.5,439.9,179.3,439,178.9z"/>
	
		<rect x="415.8" y="194.2" transform="matrix(0.6782 -0.7349 0.7349 0.6782 -15.0479 371.2109)" class="st3" width="1" height="17.2"/>
</g>
<ellipse transform="matrix(0.5812 -0.8138 0.8138 0.5812 -136.3238 463.8574)" class="st0" cx="382.5" cy="364.4" rx="39.1" ry="39.1"/>
<circle class="st1" cx="382.5" cy="364.4" r="46.8"/>
<g>
	<path class="st2" d="M382.5,403.9c-21.8,0-39.5-17.7-39.5-39.5s17.7-39.5,39.5-39.5c21.8,0,39.5,17.7,39.5,39.5
		S404.3,403.9,382.5,403.9z M382.5,325.7c-21.3,0-38.6,17.3-38.6,38.6c0,21.3,17.3,38.6,38.6,38.6c21.3,0,38.6-17.3,38.6-38.6
		C421.1,343.1,403.8,325.7,382.5,325.7z"/>
</g>
<path class="st3" d="M400.6,364.6c0-3.2-2.6-5.9-5.9-5.9c1.2-2.1,2-4.7,2-7.7c0-6.8-4.2-9.6-6.6-10.6c0-0.1,0-0.2,0-0.3
	c0-1.3-1-2.3-2.3-2.3c-1.3,0-2.3,1-2.3,2.3s1,2.3,2.3,2.3c0.7,0,1.3-0.3,1.7-0.7c2.1,0.8,5.8,3.2,5.8,9.4c0,2.5-0.8,5.4-2.4,8
	c-2.2,0.7-3.8,2.5-4.1,4.8c-2.2,1.9-5,3.4-8.2,4.2c-9.6-2.5-14.8-10.6-14.8-17c0-7,4.8-9.1,6.5-9.6c0.4,0.6,1.1,1,1.9,1
	c1.3,0,2.3-1,2.3-2.3s-1-2.3-2.3-2.3c-1.3,0-2.3,1-2.3,2.3c-2.1,0.7-7.5,3.1-7.5,10.9c0,5.5,2.8,9.6,5.2,12.1
	c2.8,2.9,6.5,5.1,10.3,6.2v12.3c0,4.2,3.4,7.6,7.6,7.6c4.2,0,7.6-3.4,7.6-7.6v-11C398.2,370.3,400.6,367.7,400.6,364.6z
	 M387.5,387.8c-3.4,0-6.2-2.8-6.2-6.2v-12.3c2.6-0.7,5.3-2.1,7.6-3.8c0.4,2.6,2.4,4.6,4.9,5v11.1C393.8,385,391,387.8,387.5,387.8z
	 M394.7,366.9c-1.3,0-2.3-1-2.3-2.3s1-2.3,2.3-2.3c1.3,0,2.3,1,2.3,2.3S396,366.9,394.7,366.9z"/>
<g>
	<path class="st4" d="M298.9,393.7H177.5c-6.5,0-11.8-5.3-11.8-11.8V147.3c0-6.5,5.3-11.8,11.8-11.8h121.4c6.5,0,11.8,5.3,11.8,11.8
		V382C310.6,388.5,305.3,393.7,298.9,393.7z"/>
	<path class="st2" d="M307.7,216.5L307.7,216.5v-37.9l0,0c2.1,0,3.9,1.7,3.9,3.9v30.1C311.6,214.8,309.8,216.5,307.7,216.5z"/>
	<path class="st2" d="M168.6,201.4L168.6,201.4v37.9l0,0c-2.1,0-3.9-1.7-3.9-3.9v-30.1C164.7,203.2,166.5,201.4,168.6,201.4z"/>
	<path class="st2" d="M308.8,261.2h-1.1v-19.9h1.1c1.6,0,2.8,1.3,2.8,2.8v14.3C311.6,260,310.3,261.2,308.8,261.2z"/>
</g>
<g>
	<defs>
		<path id="XMLID_5_" d="M295.2,372.1H181.1c-5.9,0-10.8-4.8-10.8-10.8V151.9c0-5.9,4.8-10.8,10.8-10.8h114.1
			c5.9,0,10.8,4.8,10.8,10.8v209.4C306,367.3,301.2,372.1,295.2,372.1z"/>
	</defs>
	<use xlink:href="#XMLID_5_"  style="overflow:visible;fill:#C8E6FF;"/>
	<clipPath id="XMLID_2_">
		<use xlink:href="#XMLID_5_"  style="overflow:visible;"/>
	</clipPath>
	<polygon class="st5" points="138.5,284.1 272.7,91.5 323.7,94.4 142.9,336.6 	"/>
	<path class="st5" d="M188.6,388.6C191,385.2,366,197.5,366,197.5l19,37.4l-75.4,91.4l-110.1,69.8l-14.2-2.4"/>
</g>
<path class="st6" d="M243.5,383c0,3-2.4,5.3-5.3,5.3c-3,0-5.3-2.4-5.3-5.3c0-3,2.4-5.3,5.3-5.3C241.1,377.7,243.5,380.1,243.5,383z"
	/>
<path class="st7" d="M250.5,317.6H139.7c-2,0-3.7,1.6-3.7,3.7v17.5c0,2,1.6,3.7,3.7,3.7H218l5.1,6.3l6-6.3h21.4c2,0,3.7-1.6,3.7-3.7
	v-17.5C254.2,319.3,252.6,317.6,250.5,317.6z"/>
<path class="st8" d="M250.5,314.2H139.7c-2,0-3.7,1.6-3.7,3.7v17.5c0,2,1.6,3.7,3.7,3.7H218l5.1,6.3l6-6.3h21.4c2,0,3.7-1.6,3.7-3.7
	v-17.5C254.2,315.9,252.6,314.2,250.5,314.2z"/>
<g>
	<defs>
		<path id="XMLID_3_" d="M211.9,260.7l2.9,29.7h44.7l5.3-39.9l-31.6-4.9C233.3,245.7,206.6,243.2,211.9,260.7z"/>
	</defs>
	<use xlink:href="#XMLID_3_"  style="overflow:visible;fill:#3EA1DE;"/>
	<clipPath id="XMLID_6_">
		<use xlink:href="#XMLID_3_"  style="overflow:visible;"/>
	</clipPath>
	<path class="st9" d="M206.6,248.6c-0.6,1.9,56.9,8.3,66.1-2.4C287.9,228.5,210.4,235.5,206.6,248.6z"/>
</g>
<path class="st3" d="M239.1,132.7c0,0-22.9,7.9-23.8,15.7c-1,7.9,0,117,0,117s44.7,4.5,49.6,0c4.9-4.5,10.7-124.3,6.3-128.2
	c-4.4-3.9-20.4-6.7-20.4-6.7L239.1,132.7z"/>
<g>
	<defs>
		<path id="XMLID_4_" d="M260,131.4c0,0-10.5,20.2-9.5,43c1,22.9,1.9,119.1,1.9,119.1l24.3-5.8V153.5
			C276.8,153.5,272.9,140.3,260,131.4z"/>
	</defs>
	<use xlink:href="#XMLID_4_"  style="overflow:visible;fill:#F8FDFF;"/>
	<clipPath id="XMLID_7_">
		<use xlink:href="#XMLID_4_"  style="overflow:visible;"/>
	</clipPath>
	<path class="st10" d="M250.3,214.1l31.6-2.9l-7.8-47.2c0,0,10.7,27.7-25.8,31.6c-36.8,3.9,3,15.4,3,15.4"/>
</g>
<path class="st11" d="M233.5,134.3c0,0-5.8,13.9-6.7,51.8c-1,37.9-2.4,107.5-2.4,107.5l-22.9-1.9c0,0,8.3-135.7,13.6-145.9
	C220.4,135.5,233.5,134.3,233.5,134.3z"/>
<path class="st11" d="M233.5,134.1c0,0-18,3.9-24.3,8.8c-6.3,4.9-19.4,38.4-21.9,37.9c-2.4-0.5-22.9-25.8-26.3-27.2
	c0,0-8.3,12.6-10.7,13.1c0,0,24.8,34.5,33.6,39.9c8.8,5.3,29.7-23.8,29.7-23.8L233.5,134.1z"/>
<path class="st12" d="M226.4,84.5c0,0.9-4.3,13.8,0,28.5c4.3,14.7,12.1,12.9,12.1,12.9s-0.9,6-3.5,8.6l4.3,9.5l19.3-12.2
	c0,0-7.2-15.4-1.2-29.2c6-13.8-17.3-35.4-30.2-18.1"/>
<path d="M254.9,98.3c0,0,0.8,12.5-5.4,14c-6.2,1.6-12.5-4.7-17.9-2.3c-5.4,2.3-6.2-2.3-6.2-2.3s-1.6,10.1-1.6,12.5s4.7,8.6,10.1,8.6
	s21-8.6,23.3-13.2c2.3-4.7,0-17.1,0-17.1H254.9z"/>
<path d="M244.5,87.1c0,0-16.3,5.1-20.7-0.9c-6.5-8.8,6-13.8,12.1-11.2c6,2.6,25.9-3.4,22.4,9.5c0,0,10.4,2.6,5.2,12.9
	c-5.2,10.3-6.9,15.5-6.9,15.5v-11.2C256.6,101.8,250.5,85.4,244.5,87.1z"/>
<g>
	<path class="st12" d="M154.1,153.6c0,0-3.3-3.5-3.9-6.3c-0.1-0.4-0.6-0.5-0.9-0.1c-0.9,1.5-1.9,4.3,0.8,6.6
		C154,157.2,154.1,153.6,154.1,153.6z"/>
	<path class="st12" d="M158.4,160.1c-0.5,0-2.4-6.3-5.8-6.8c-3.4-0.5-10.2,0-11.2,0c-1,0-9.2-5.3-13.1-2.4c0,0,10.2,3.4,11.7,5.3
		c1.5,1.9,8.3,6.8,15.1,7.8"/>
	<path class="st13" d="M130.2,150.1"/>
</g>
<polygon class="st14" points="262.5,134 266.6,150.1 261.3,150.1 263.7,160.8 250.9,185.4 266.6,162.3 263.7,151.1 268.5,151.1 "/>
<polygon class="st14" points="231.8,134.9 217.7,147.4 221.1,147.4 216.8,157.2 225.5,177.6 218.7,157.2 223.1,147 220.7,146 "/>
<polygon points="184.2,172.5 225,172.5 240.1,222.6 199.3,222.6 "/>
<path class="st12" d="M241.3,201.9c0,0-3.5-5.3-9.3-6.1l1.3,4.4c0,0-10.1-2.2-12.5-4.2c-2.4-1.9-1.5,7.3,1,9.2
	c2.4,1.9,6.3,4.4,7.8,5.3c1.5,1,12.2-0.5,12.2-0.5L241.3,201.9z"/>
<path class="st11" d="M260.3,132.1c0,0,21.4,5.3,28.2,11.7c6.8,6.3,11.7,50.6,8.8,55.9c-2.9,5.3-51.3,14.3-55.2,14.3
	c0,0,0-13.1-3.4-15.1c0,0,35.3-6.1,36.7-9.5C276.8,186.1,274.9,142.3,260.3,132.1z"/>
<path class="st15" d="M242.7,98.8c0.1,3.5-1.7,6.4-4,6.5c-2.3,0.1-4.2-2.7-4.4-6.2c-0.1-3.5,1.7-6.4,4-6.5
	C240.6,92.4,242.6,95.2,242.7,98.8z"/>
<path class="st15" d="M230.6,98.7c0.1,3.5-1.7,6.4-4,6.5c-2.3,0.1-4.2-2.7-4.4-6.2c-0.1-3.5,1.7-6.4,4-6.5
	C228.6,92.4,230.5,95.2,230.6,98.7z"/>
<line class="st15" x1="242.5" y1="98.8" x2="258.6" y2="101.7"/>
<path class="st15" d="M230.4,98.3c0,0,1.9-1.5,4-0.2"/>
<path class="st12" d="M261.4,106.1c-1.2,2.4-3.3,3.7-4.8,2.9c-1.5-0.7-1.8-3.2-0.6-5.6c1.2-2.4,3.3-3.7,4.8-2.9
	C262.3,101.3,262.6,103.8,261.4,106.1z"/>
<g>
	<path class="st8" d="M281.9,363.8h-90c-3.8,0-6.8-3-6.8-6.8l0,0c0-3.8,3-6.8,6.8-6.8h90c3.8,0,6.8,3,6.8,6.8l0,0
		C288.7,360.8,285.7,363.8,281.9,363.8z"/>
	<path class="st2" d="M198.8,357c0,3-2.4,5.3-5.3,5.3c-3,0-5.3-2.4-5.3-5.3s2.4-5.3,5.3-5.3C196.4,351.7,198.8,354.1,198.8,357z"/>
</g>
<g>
	<path class="st3" d="M159.4,323.6c0-2.2-1.8-4.4-4-4.4c-2.1,0-3.8,1.7-4,3.7l0,0l0,0c-0.1-2.1-1.8-3.7-4-3.7c-2.2,0-4,2.2-4,4.4
		c0,0.3,0,0.5,0.1,0.8l0,0c0,0,0.9,6,7.9,8.8c7-2.8,7.9-8.8,7.9-8.8l0,0C159.4,324.1,159.4,323.8,159.4,323.6z"/>
</g>
<rect x="165.7" y="321" class="st2" width="74.4" height="1.5"/>
<rect x="165.7" y="323.8" class="st2" width="74.4" height="1.5"/>
<rect x="165.7" y="326.5" class="st2" width="74.4" height="1.5"/>
<rect x="165.7" y="329.3" class="st2" width="26.7" height="1.5"/>
<path class="st7" d="M177.2,274.8H288c2,0,3.7,1.6,3.7,3.7V296c0,2-1.6,3.7-3.7,3.7h-78.3l-5.1,6.3l-6-6.3h-21.4
	c-2,0-3.7-1.6-3.7-3.7v-17.5C173.5,276.5,175.1,274.8,177.2,274.8z"/>
<path class="st8" d="M177.2,271.4H288c2,0,3.7,1.6,3.7,3.7v17.5c0,2-1.6,3.7-3.7,3.7h-78.3l-5.1,6.3l-6-6.3h-21.4
	c-2,0-3.7-1.6-3.7-3.7v-17.5C173.5,273.1,175.1,271.4,177.2,271.4z"/>
<rect x="187.6" y="278.2" transform="matrix(-1 -1.224647e-16 1.224647e-16 -1 449.5716 557.9507)" class="st2" width="74.4" height="1.5"/>
<rect x="187.6" y="281" transform="matrix(-1 -1.224647e-16 1.224647e-16 -1 449.5716 563.4613)" class="st2" width="74.4" height="1.5"/>
<rect x="187.6" y="283.8" transform="matrix(-1 -1.224647e-16 1.224647e-16 -1 449.5716 568.9719)" class="st2" width="74.4" height="1.5"/>
<rect x="235.2" y="286.5" transform="matrix(-1 -1.224647e-16 1.224647e-16 -1 497.2226 574.4825)" class="st2" width="26.7" height="1.5"/>
<g>
	<g>
		<g>
			<defs>
				<path id="SVGID_1_" d="M279.9,278.5c0,1.6-1.3,3-3,3c-1.6,0-3-1.3-3-3c0-1.6,1.3-3,3-3C278.6,275.6,279.9,276.9,279.9,278.5z"/>
			</defs>
			<use xlink:href="#SVGID_1_"  style="overflow:visible;fill:#407BFF;"/>
			<clipPath id="SVGID_2_">
				<use xlink:href="#SVGID_1_"  style="overflow:visible;"/>
			</clipPath>
			<rect x="273.9" y="275.6" class="st16" width="5.9" height="5.9"/>
			<path class="st16" d="M279.9,278.5c0,1.6-1.3,3-3,3c-1.6,0-3-1.3-3-3c0-1.6,1.3-3,3-3C278.6,275.6,279.9,276.9,279.9,278.5z"/>
			<path class="st16" d="M279.8,278.5c0,1.6-1.3,2.9-2.9,2.9c-1.6,0-2.9-1.3-2.9-2.9c0-1.6,1.3-2.9,2.9-2.9
				C278.5,275.6,279.8,276.9,279.8,278.5z"/>
			<path class="st16" d="M279.8,278.5c0,1.6-1.3,2.8-2.8,2.8c-1.6,0-2.8-1.3-2.8-2.8c0-1.6,1.3-2.8,2.8-2.8
				C278.5,275.7,279.8,277,279.8,278.5z"/>
			<path class="st16" d="M279.7,278.5c0,1.5-1.2,2.8-2.8,2.8c-1.5,0-2.8-1.2-2.8-2.8c0-1.5,1.2-2.8,2.8-2.8
				C278.5,275.8,279.7,277,279.7,278.5z"/>
			<path class="st16" d="M279.6,278.5c0,1.5-1.2,2.7-2.7,2.7c-1.5,0-2.7-1.2-2.7-2.7c0-1.5,1.2-2.7,2.7-2.7
				C278.4,275.8,279.6,277,279.6,278.5z"/>
			<path class="st16" d="M279.6,278.5c0,1.5-1.2,2.7-2.7,2.7c-1.5,0-2.7-1.2-2.7-2.7c0-1.5,1.2-2.7,2.7-2.7
				C278.4,275.9,279.6,277.1,279.6,278.5z"/>
			<path class="st16" d="M279.5,278.5c0,1.4-1.2,2.6-2.6,2.6c-1.4,0-2.6-1.2-2.6-2.6c0-1.4,1.2-2.6,2.6-2.6
				C278.4,275.9,279.5,277.1,279.5,278.5z"/>
			<path class="st16" d="M279.5,278.5c0,1.4-1.1,2.5-2.5,2.5c-1.4,0-2.5-1.1-2.5-2.5c0-1.4,1.1-2.5,2.5-2.5
				C278.3,276,279.5,277.1,279.5,278.5z"/>
			<path class="st16" d="M279.4,278.5c0,1.4-1.1,2.5-2.5,2.5c-1.4,0-2.5-1.1-2.5-2.5c0-1.4,1.1-2.5,2.5-2.5
				C278.3,276.1,279.4,277.2,279.4,278.5z"/>
			<path class="st16" d="M279.3,278.5c0,1.3-1.1,2.4-2.4,2.4c-1.3,0-2.4-1.1-2.4-2.4c0-1.3,1.1-2.4,2.4-2.4
				C278.3,276.1,279.3,277.2,279.3,278.5z"/>
			<path class="st16" d="M279.3,278.5c0,1.3-1.1,2.4-2.4,2.4c-1.3,0-2.4-1.1-2.4-2.4c0-1.3,1.1-2.4,2.4-2.4
				C278.2,276.2,279.3,277.2,279.3,278.5z"/>
			<path class="st16" d="M279.2,278.5c0,1.3-1,2.3-2.3,2.3c-1.3,0-2.3-1-2.3-2.3c0-1.3,1-2.3,2.3-2.3
				C278.2,276.2,279.2,277.3,279.2,278.5z"/>
			<path class="st16" d="M279.2,278.5c0,1.2-1,2.2-2.2,2.2c-1.2,0-2.2-1-2.2-2.2c0-1.2,1-2.2,2.2-2.2
				C278.2,276.3,279.2,277.3,279.2,278.5z"/>
			<path class="st16" d="M279.1,278.5c0,1.2-1,2.2-2.2,2.2c-1.2,0-2.2-1-2.2-2.2c0-1.2,1-2.2,2.2-2.2
				C278.1,276.4,279.1,277.3,279.1,278.5z"/>
			<path class="st16" d="M279,278.5c0,1.2-0.9,2.1-2.1,2.1c-1.2,0-2.1-0.9-2.1-2.1c0-1.2,0.9-2.1,2.1-2.1
				C278.1,276.4,279,277.4,279,278.5z"/>
			<path class="st16" d="M279,278.5c0,1.1-0.9,2.1-2.1,2.1c-1.1,0-2.1-0.9-2.1-2.1c0-1.1,0.9-2.1,2.1-2.1
				C278.1,276.5,279,277.4,279,278.5z"/>
			<path class="st16" d="M278.9,278.5c0,1.1-0.9,2-2,2s-2-0.9-2-2c0-1.1,0.9-2,2-2S278.9,277.4,278.9,278.5z"/>
			<path class="st16" d="M278.9,278.5c0,1.1-0.9,1.9-1.9,1.9c-1.1,0-1.9-0.9-1.9-1.9c0-1.1,0.9-1.9,1.9-1.9
				C278,276.6,278.9,277.5,278.9,278.5z"/>
			<path class="st16" d="M278.8,278.5c0,1-0.8,1.9-1.9,1.9c-1,0-1.9-0.8-1.9-1.9c0-1,0.8-1.9,1.9-1.9
				C278,276.7,278.8,277.5,278.8,278.5z"/>
			<path class="st16" d="M278.7,278.5c0,1-0.8,1.8-1.8,1.8c-1,0-1.8-0.8-1.8-1.8c0-1,0.8-1.8,1.8-1.8
				C277.9,276.7,278.7,277.5,278.7,278.5z"/>
			<path class="st16" d="M278.7,278.5c0,1-0.8,1.8-1.8,1.8c-1,0-1.8-0.8-1.8-1.8c0-1,0.8-1.8,1.8-1.8
				C277.9,276.8,278.7,277.6,278.7,278.5z"/>
			<path class="st16" d="M278.6,278.5c0,0.9-0.8,1.7-1.7,1.7c-0.9,0-1.7-0.8-1.7-1.7c0-0.9,0.8-1.7,1.7-1.7
				C277.9,276.9,278.6,277.6,278.6,278.5z"/>
			<path class="st16" d="M278.6,278.5c0,0.9-0.7,1.6-1.6,1.6c-0.9,0-1.6-0.7-1.6-1.6c0-0.9,0.7-1.6,1.6-1.6
				C277.8,276.9,278.6,277.6,278.6,278.5z"/>
			<circle class="st16" cx="276.9" cy="278.5" r="1.6"/>
			<path class="st16" d="M278.4,278.5c0,0.8-0.7,1.5-1.5,1.5c-0.8,0-1.5-0.7-1.5-1.5c0-0.8,0.7-1.5,1.5-1.5
				C277.8,277,278.4,277.7,278.4,278.5z"/>
			<path class="st16" d="M278.4,278.5c0,0.8-0.7,1.5-1.5,1.5c-0.8,0-1.5-0.7-1.5-1.5c0-0.8,0.7-1.5,1.5-1.5
				C277.7,277.1,278.4,277.7,278.4,278.5z"/>
			<path class="st16" d="M278.3,278.5c0,0.8-0.6,1.4-1.4,1.4c-0.8,0-1.4-0.6-1.4-1.4c0-0.8,0.6-1.4,1.4-1.4
				C277.7,277.2,278.3,277.8,278.3,278.5z"/>
			<path class="st16" d="M278.2,278.5c0,0.7-0.6,1.3-1.3,1.3c-0.7,0-1.3-0.6-1.3-1.3c0-0.7,0.6-1.3,1.3-1.3
				C277.7,277.2,278.2,277.8,278.2,278.5z"/>
			<path class="st16" d="M278.2,278.5c0,0.7-0.6,1.3-1.3,1.3c-0.7,0-1.3-0.6-1.3-1.3c0-0.7,0.6-1.3,1.3-1.3
				C277.6,277.3,278.2,277.8,278.2,278.5z"/>
			<path class="st16" d="M278.1,278.5c0,0.7-0.5,1.2-1.2,1.2c-0.7,0-1.2-0.5-1.2-1.2c0-0.7,0.5-1.2,1.2-1.2
				C277.6,277.3,278.1,277.9,278.1,278.5z"/>
			<path class="st16" d="M278.1,278.5c0,0.6-0.5,1.2-1.2,1.2c-0.6,0-1.2-0.5-1.2-1.2s0.5-1.2,1.2-1.2
				C277.6,277.4,278.1,277.9,278.1,278.5z"/>
			<path class="st16" d="M278,278.5c0,0.6-0.5,1.1-1.1,1.1c-0.6,0-1.1-0.5-1.1-1.1c0-0.6,0.5-1.1,1.1-1.1
				C277.5,277.5,278,277.9,278,278.5z"/>
			<path class="st16" d="M277.9,278.5c0,0.6-0.5,1-1,1c-0.6,0-1-0.5-1-1c0-0.6,0.5-1,1-1C277.5,277.5,277.9,278,277.9,278.5z"/>
			<path class="st16" d="M277.9,278.5c0,0.5-0.4,1-1,1c-0.5,0-1-0.4-1-1c0-0.5,0.4-1,1-1C277.5,277.6,277.9,278,277.9,278.5z"/>
			<path class="st16" d="M277.8,278.5c0,0.5-0.4,0.9-0.9,0.9c-0.5,0-0.9-0.4-0.9-0.9c0-0.5,0.4-0.9,0.9-0.9
				C277.4,277.6,277.8,278,277.8,278.5z"/>
			<path class="st16" d="M277.8,278.5c0,0.5-0.4,0.8-0.8,0.8c-0.5,0-0.8-0.4-0.8-0.8s0.4-0.8,0.8-0.8
				C277.4,277.7,277.8,278.1,277.8,278.5z"/>
			<path class="st16" d="M277.7,278.5c0,0.4-0.4,0.8-0.8,0.8c-0.4,0-0.8-0.4-0.8-0.8c0-0.4,0.4-0.8,0.8-0.8
				C277.4,277.8,277.7,278.1,277.7,278.5z"/>
			<path class="st16" d="M277.6,278.5c0,0.4-0.3,0.7-0.7,0.7c-0.4,0-0.7-0.3-0.7-0.7c0-0.4,0.3-0.7,0.7-0.7
				C277.3,277.8,277.6,278.1,277.6,278.5z"/>
			<path class="st16" d="M277.6,278.5c0,0.4-0.3,0.7-0.7,0.7c-0.4,0-0.7-0.3-0.7-0.7c0-0.4,0.3-0.7,0.7-0.7
				C277.3,277.9,277.6,278.2,277.6,278.5z"/>
			<path class="st16" d="M277.5,278.5c0,0.3-0.3,0.6-0.6,0.6c-0.3,0-0.6-0.3-0.6-0.6c0-0.3,0.3-0.6,0.6-0.6
				C277.3,277.9,277.5,278.2,277.5,278.5z"/>
			<path class="st16" d="M277.5,278.5c0,0.3-0.2,0.5-0.5,0.5c-0.3,0-0.5-0.2-0.5-0.5c0-0.3,0.2-0.5,0.5-0.5
				C277.2,278,277.5,278.2,277.5,278.5z"/>
			<path class="st16" d="M277.4,278.5c0,0.3-0.2,0.5-0.5,0.5c-0.3,0-0.5-0.2-0.5-0.5c0-0.3,0.2-0.5,0.5-0.5
				C277.2,278.1,277.4,278.3,277.4,278.5z"/>
			<path class="st16" d="M277.3,278.5c0,0.2-0.2,0.4-0.4,0.4c-0.2,0-0.4-0.2-0.4-0.4c0-0.2,0.2-0.4,0.4-0.4
				C277.2,278.1,277.3,278.3,277.3,278.5z"/>
			<path class="st16" d="M277.3,278.5c0,0.2-0.2,0.4-0.4,0.4c-0.2,0-0.4-0.2-0.4-0.4c0-0.2,0.2-0.4,0.4-0.4
				C277.1,278.2,277.3,278.3,277.3,278.5z"/>
			<path class="st16" d="M277.2,278.5c0,0.2-0.1,0.3-0.3,0.3c-0.2,0-0.3-0.1-0.3-0.3c0-0.2,0.1-0.3,0.3-0.3
				C277.1,278.2,277.2,278.4,277.2,278.5z"/>
			<path class="st16" d="M277.2,278.5c0,0.1-0.1,0.2-0.2,0.2c-0.1,0-0.2-0.1-0.2-0.2c0-0.1,0.1-0.2,0.2-0.2
				C277.1,278.3,277.2,278.4,277.2,278.5z"/>
			<path class="st16" d="M277.1,278.5c0,0.1-0.1,0.2-0.2,0.2c-0.1,0-0.2-0.1-0.2-0.2c0-0.1,0.1-0.2,0.2-0.2
				C277,278.4,277.1,278.4,277.1,278.5z"/>
			<path class="st16" d="M277,278.5c0,0.1-0.1,0.1-0.1,0.1c-0.1,0-0.1-0.1-0.1-0.1c0-0.1,0.1-0.1,0.1-0.1
				C277,278.4,277,278.5,277,278.5z"/>
			<path class="st16" d="M277,278.5C277,278.6,276.9,278.6,277,278.5c-0.1,0.1-0.1,0-0.1,0C276.9,278.5,276.9,278.5,277,278.5
				C276.9,278.5,277,278.5,277,278.5z"/>
		</g>
	</g>
	<g>
		<g>
			<defs>
				<path id="SVGID_3_" d="M282.4,288.7c0-3-2.4-5.4-5.4-5.4c-3,0-5.4,2.4-5.4,5.4H282.4z"/>
			</defs>
			<use xlink:href="#SVGID_3_"  style="overflow:visible;fill:#407BFF;"/>
			<clipPath id="SVGID_4_">
				<use xlink:href="#SVGID_3_"  style="overflow:visible;"/>
			</clipPath>
			<rect x="271.6" y="283.3" class="st17" width="10.8" height="5.4"/>
			<path class="st17" d="M281.3,286c0,2.4-1.9,4.3-4.3,4.3c-2.4,0-4.3-1.9-4.3-4.3c0-2.4,1.9-4.3,4.3-4.3
				C279.4,281.7,281.3,283.7,281.3,286z"/>
			<path class="st17" d="M281.2,286c0,2.3-1.9,4.2-4.2,4.2c-2.3,0-4.2-1.9-4.2-4.2c0-2.3,1.9-4.2,4.2-4.2
				C279.3,281.8,281.2,283.7,281.2,286z"/>
			<path class="st17" d="M281.1,286c0,2.3-1.8,4.1-4.1,4.1c-2.3,0-4.1-1.8-4.1-4.1c0-2.3,1.8-4.1,4.1-4.1
				C279.3,281.9,281.1,283.8,281.1,286z"/>
			<path class="st17" d="M281,286c0,2.2-1.8,4-4,4c-2.2,0-4-1.8-4-4c0-2.2,1.8-4,4-4C279.2,282,281,283.8,281,286z"/>
			<path class="st17" d="M280.9,286c0,2.2-1.8,3.9-3.9,3.9c-2.2,0-3.9-1.8-3.9-3.9c0-2.2,1.8-3.9,3.9-3.9
				C279.2,282.1,280.9,283.8,280.9,286z"/>
			<path class="st17" d="M280.8,286c0,2.1-1.7,3.8-3.8,3.8c-2.1,0-3.8-1.7-3.8-3.8c0-2.1,1.7-3.8,3.8-3.8
				C279.1,282.2,280.8,283.9,280.8,286z"/>
			<path class="st17" d="M280.7,286c0,2.1-1.7,3.7-3.7,3.7c-2.1,0-3.7-1.7-3.7-3.7c0-2.1,1.7-3.7,3.7-3.7
				C279.1,282.3,280.7,283.9,280.7,286z"/>
			<path class="st17" d="M280.7,286c0,2-1.6,3.7-3.7,3.7c-2,0-3.7-1.6-3.7-3.7c0-2,1.6-3.7,3.7-3.7C279,282.4,280.7,284,280.7,286z"
				/>
			<path class="st17" d="M280.6,286c0,2-1.6,3.6-3.6,3.6c-2,0-3.6-1.6-3.6-3.6c0-2,1.6-3.6,3.6-3.6C279,282.4,280.6,284,280.6,286z"
				/>
			<path class="st17" d="M280.5,286c0,1.9-1.6,3.5-3.5,3.5c-1.9,0-3.5-1.6-3.5-3.5c0-1.9,1.6-3.5,3.5-3.5
				C278.9,282.5,280.5,284.1,280.5,286z"/>
			<path class="st17" d="M280.4,286c0,1.9-1.5,3.4-3.4,3.4c-1.9,0-3.4-1.5-3.4-3.4s1.5-3.4,3.4-3.4
				C278.9,282.6,280.4,284.1,280.4,286z"/>
			<path class="st17" d="M280.3,286c0,1.8-1.5,3.3-3.3,3.3c-1.8,0-3.3-1.5-3.3-3.3c0-1.8,1.5-3.3,3.3-3.3
				C278.8,282.7,280.3,284.2,280.3,286z"/>
			<path class="st17" d="M280.2,286c0,1.8-1.4,3.2-3.2,3.2c-1.8,0-3.2-1.4-3.2-3.2c0-1.8,1.4-3.2,3.2-3.2
				C278.8,282.8,280.2,284.2,280.2,286z"/>
			<path class="st17" d="M280.1,286c0,1.7-1.4,3.1-3.1,3.1c-1.7,0-3.1-1.4-3.1-3.1c0-1.7,1.4-3.1,3.1-3.1
				C278.7,282.9,280.1,284.3,280.1,286z"/>
			<path class="st17" d="M280.1,286c0,1.7-1.4,3-3,3c-1.7,0-3-1.4-3-3c0-1.7,1.4-3,3-3C278.7,283,280.1,284.3,280.1,286z"/>
			<path class="st17" d="M280,286c0,1.6-1.3,3-3,3c-1.6,0-3-1.3-3-3c0-1.6,1.3-3,3-3C278.6,283,280,284.4,280,286z"/>
			<path class="st17" d="M279.9,286c0,1.6-1.3,2.9-2.9,2.9c-1.6,0-2.9-1.3-2.9-2.9c0-1.6,1.3-2.9,2.9-2.9
				C278.6,283.1,279.9,284.4,279.9,286z"/>
			<path class="st17" d="M279.8,286c0,1.5-1.2,2.8-2.8,2.8c-1.5,0-2.8-1.2-2.8-2.8c0-1.5,1.2-2.8,2.8-2.8
				C278.5,283.2,279.8,284.5,279.8,286z"/>
			<path class="st17" d="M279.7,286c0,1.5-1.2,2.7-2.7,2.7c-1.5,0-2.7-1.2-2.7-2.7c0-1.5,1.2-2.7,2.7-2.7
				C278.5,283.3,279.7,284.5,279.7,286z"/>
			<path class="st17" d="M279.6,286c0,1.4-1.2,2.6-2.6,2.6c-1.4,0-2.6-1.2-2.6-2.6c0-1.4,1.2-2.6,2.6-2.6
				C278.4,283.4,279.6,284.6,279.6,286z"/>
			<path class="st17" d="M279.5,286c0,1.4-1.1,2.5-2.5,2.5c-1.4,0-2.5-1.1-2.5-2.5c0-1.4,1.1-2.5,2.5-2.5
				C278.4,283.5,279.5,284.6,279.5,286z"/>
			<path class="st17" d="M279.4,286c0,1.3-1.1,2.4-2.4,2.4c-1.3,0-2.4-1.1-2.4-2.4c0-1.3,1.1-2.4,2.4-2.4
				C278.4,283.6,279.4,284.7,279.4,286z"/>
			<path class="st17" d="M279.4,286c0,1.3-1.1,2.4-2.4,2.4c-1.3,0-2.4-1.1-2.4-2.4c0-1.3,1.1-2.4,2.4-2.4
				C278.3,283.7,279.4,284.7,279.4,286z"/>
			<path class="st17" d="M279.3,286c0,1.3-1,2.3-2.3,2.3c-1.3,0-2.3-1-2.3-2.3c0-1.3,1-2.3,2.3-2.3
				C278.3,283.7,279.3,284.8,279.3,286z"/>
			<path class="st17" d="M279.2,286c0,1.2-1,2.2-2.2,2.2c-1.2,0-2.2-1-2.2-2.2c0-1.2,1-2.2,2.2-2.2
				C278.2,283.8,279.2,284.8,279.2,286z"/>
			<path class="st17" d="M279.1,286c0,1.2-0.9,2.1-2.1,2.1c-1.2,0-2.1-0.9-2.1-2.1c0-1.2,0.9-2.1,2.1-2.1
				C278.2,283.9,279.1,284.9,279.1,286z"/>
			<path class="st17" d="M279,286c0,1.1-0.9,2-2,2c-1.1,0-2-0.9-2-2c0-1.1,0.9-2,2-2C278.1,284,279,284.9,279,286z"/>
			<path class="st17" d="M278.9,286c0,1.1-0.9,1.9-1.9,1.9c-1.1,0-1.9-0.9-1.9-1.9c0-1.1,0.9-1.9,1.9-1.9
				C278.1,284.1,278.9,285,278.9,286z"/>
			<path class="st17" d="M278.8,286c0,1-0.8,1.8-1.8,1.8c-1,0-1.8-0.8-1.8-1.8c0-1,0.8-1.8,1.8-1.8C278,284.2,278.8,285,278.8,286z"
				/>
			<path class="st17" d="M278.7,286c0,1-0.8,1.7-1.7,1.7c-1,0-1.7-0.8-1.7-1.7c0-1,0.8-1.7,1.7-1.7C278,284.3,278.7,285,278.7,286z"
				/>
			<path class="st17" d="M278.7,286c0,0.9-0.7,1.7-1.7,1.7c-0.9,0-1.7-0.7-1.7-1.7c0-0.9,0.7-1.7,1.7-1.7
				C277.9,284.4,278.7,285.1,278.7,286z"/>
			<path class="st17" d="M278.6,286c0,0.9-0.7,1.6-1.6,1.6c-0.9,0-1.6-0.7-1.6-1.6c0-0.9,0.7-1.6,1.6-1.6
				C277.9,284.4,278.6,285.1,278.6,286z"/>
			<path class="st17" d="M278.5,286c0,0.8-0.7,1.5-1.5,1.5c-0.8,0-1.5-0.7-1.5-1.5c0-0.8,0.7-1.5,1.5-1.5
				C277.8,284.5,278.5,285.2,278.5,286z"/>
			<path class="st17" d="M278.4,286c0,0.8-0.6,1.4-1.4,1.4c-0.8,0-1.4-0.6-1.4-1.4c0-0.8,0.6-1.4,1.4-1.4
				C277.8,284.6,278.4,285.2,278.4,286z"/>
			<path class="st17" d="M278.3,286c0,0.7-0.6,1.3-1.3,1.3c-0.7,0-1.3-0.6-1.3-1.3c0-0.7,0.6-1.3,1.3-1.3
				C277.7,284.7,278.3,285.3,278.3,286z"/>
			<path class="st17" d="M278.2,286c0,0.7-0.5,1.2-1.2,1.2c-0.7,0-1.2-0.5-1.2-1.2c0-0.7,0.5-1.2,1.2-1.2
				C277.7,284.8,278.2,285.3,278.2,286z"/>
			<path class="st17" d="M278.1,286c0,0.6-0.5,1.1-1.1,1.1c-0.6,0-1.1-0.5-1.1-1.1c0-0.6,0.5-1.1,1.1-1.1
				C277.6,284.9,278.1,285.4,278.1,286z"/>
			<path class="st17" d="M278.1,286c0,0.6-0.5,1-1,1c-0.6,0-1-0.5-1-1c0-0.6,0.5-1,1-1C277.6,285,278.1,285.4,278.1,286z"/>
			<path class="st17" d="M278,286c0,0.5-0.4,1-1,1c-0.5,0-1-0.4-1-1c0-0.5,0.4-1,1-1C277.5,285,278,285.5,278,286z"/>
			<path class="st17" d="M277.9,286c0,0.5-0.4,0.9-0.9,0.9c-0.5,0-0.9-0.4-0.9-0.9c0-0.5,0.4-0.9,0.9-0.9
				C277.5,285.1,277.9,285.5,277.9,286z"/>
			<path class="st17" d="M277.8,286c0,0.4-0.4,0.8-0.8,0.8c-0.4,0-0.8-0.4-0.8-0.8c0-0.4,0.4-0.8,0.8-0.8
				C277.4,285.2,277.8,285.6,277.8,286z"/>
			<path class="st17" d="M277.7,286c0,0.4-0.3,0.7-0.7,0.7c-0.4,0-0.7-0.3-0.7-0.7c0-0.4,0.3-0.7,0.7-0.7
				C277.4,285.3,277.7,285.6,277.7,286z"/>
			<path class="st17" d="M277.6,286c0,0.3-0.3,0.6-0.6,0.6c-0.3,0-0.6-0.3-0.6-0.6c0-0.3,0.3-0.6,0.6-0.6
				C277.3,285.4,277.6,285.7,277.6,286z"/>
			<path class="st17" d="M277.5,286c0,0.3-0.2,0.5-0.5,0.5c-0.3,0-0.5-0.2-0.5-0.5s0.2-0.5,0.5-0.5
				C277.3,285.5,277.5,285.7,277.5,286z"/>
			<path class="st17" d="M277.4,286c0,0.2-0.2,0.4-0.4,0.4c-0.2,0-0.4-0.2-0.4-0.4c0-0.2,0.2-0.4,0.4-0.4
				C277.2,285.6,277.4,285.8,277.4,286z"/>
			<path class="st17" d="M277.4,286c0,0.2-0.2,0.4-0.4,0.4c-0.2,0-0.4-0.2-0.4-0.4c0-0.2,0.2-0.4,0.4-0.4
				C277.2,285.7,277.4,285.8,277.4,286z"/>
			<path class="st17" d="M277.3,286c0,0.1-0.1,0.3-0.3,0.3c-0.1,0-0.3-0.1-0.3-0.3c0-0.1,0.1-0.3,0.3-0.3
				C277.2,285.7,277.3,285.9,277.3,286z"/>
			<path class="st17" d="M277.2,286c0,0.1-0.1,0.2-0.2,0.2c-0.1,0-0.2-0.1-0.2-0.2c0-0.1,0.1-0.2,0.2-0.2
				C277.1,285.8,277.2,285.9,277.2,286z"/>
			<path class="st17" d="M277.1,286C277.1,286.1,277.1,286.1,277.1,286c-0.1,0.1-0.2,0.1-0.2,0C276.9,286,277,285.9,277.1,286
				C277.1,285.9,277.1,286,277.1,286z"/>
		</g>
	</g>
</g>
</svg>
