<?xml version="1.0" encoding="utf-8"?>
<!-- Generator: Adobe Illustrator 25.0.1, SVG Export Plug-In . SVG Version: 6.00 Build 0)  -->
<svg version="1.1" id="Capa_1" xmlns="http://www.w3.org/2000/svg" xmlns:xlink="http://www.w3.org/1999/xlink" x="0px" y="0px"
	 viewBox="0 0 512 512" style="enable-background:new 0 0 512 512;" xml:space="preserve">
<style type="text/css">
	.st0{fill:#407BFF;}
</style>
<g>
	<path class="st0" d="M121.5,166.1c2,24.2,6.7,57.4,17.2,92.2c22.3,74,61.8,126.5,117.3,156.4c55.5-29.9,95-82.5,117.3-156.4
		c10.5-34.8,15.2-68,17.2-92.2L256,98.9L121.5,166.1z"/>
	<path class="st0" d="M481.9,119.7c-0.3-5.4-3.4-10.2-8.3-12.6L262.7,1.6c-4.2-2.1-9.2-2.1-13.4,0L38.4,107c-4.8,2.4-8,7.2-8.3,12.6
		c-0.2,3.1-3.6,76.2,21.3,161c14.7,50.2,36.4,94.1,64.4,130.4c35.3,45.7,80.7,79.4,134.8,100c1.7,0.7,3.5,1,5.3,1s3.6-0.3,5.3-1
		c54.2-20.6,99.5-54.3,134.8-100c28-36.3,49.7-80.1,64.4-130.4C485.5,195.8,482,122.7,481.9,119.7L481.9,119.7z M262.6,445.1
		c-2.1,1-4.4,1.6-6.6,1.6s-4.6-0.5-6.6-1.6c-66.8-33-113.7-92.9-139.4-178.1c-12.9-42.6-17.5-82.7-19.1-108.9
		c-0.4-6,2.9-11.7,8.3-14.3l150.2-75.1c4.2-2.1,9.2-2.1,13.4,0l150.2,75.1c5.4,2.7,8.6,8.3,8.3,14.4c-1.6,26.2-6.3,66.3-19.1,108.9
		C376.3,352.1,329.4,412,262.6,445.1L262.6,445.1z"/>
</g>
</svg>
