<?xml version="1.0" encoding="utf-8"?>
<!-- Generator: Adobe Illustrator 25.0.1, SVG Export Plug-In . SVG Version: 6.00 Build 0)  -->
<svg version="1.1" id="Layer_1" xmlns="http://www.w3.org/2000/svg" xmlns:xlink="http://www.w3.org/1999/xlink" x="0px" y="0px"
	 viewBox="0 0 512 512" style="enable-background:new 0 0 512 512;" xml:space="preserve">
<style type="text/css">
	.st0{fill:#407BFF;}
</style>
<path class="st0" d="M389.3,98.5c0-3.8-1.4-7.4-4-10.1L306.5,4.6c-2.8-3-6.7-4.6-10.8-4.6h-4.9v103.4h98.5V98.5z"/>
<path class="st0" d="M374.4,290.5c5.1,0,10,0.5,14.9,1.3V133H276.1c-8.2,0-14.8-6.6-14.8-14.8V0H98.8C90.6,0,84,6.6,84,14.8V394
	c0,8.2,6.6,14.8,14.8,14.8H223c2.6-3.5,5.4-6.9,8.6-10.1l83.6-83.6C331,299.3,352,290.5,374.4,290.5z M207.1,172.4h14.8v-14.8
	c0-8.2,6.6-14.8,14.8-14.8s14.8,6.6,14.8,14.8v14.8h14.8c8.2,0,14.8,6.6,14.8,14.8c0,8.2-6.6,14.8-14.8,14.8h-14.8v14.8
	c0,8.2-6.6,14.8-14.8,14.8s-14.8-6.6-14.8-14.8v-14.8h-14.8c-8.2,0-14.8-6.6-14.8-14.8C192.3,179,199,172.4,207.1,172.4z M157.9,261
	h157.6c8.2,0,14.8,6.6,14.8,14.8c0,8.2-6.6,14.8-14.8,14.8H157.9c-8.2,0-14.8-6.6-14.8-14.8C143.1,267.6,149.7,261,157.9,261z
	 M256.4,349.6h-98.5c-8.2,0-14.8-6.6-14.8-14.8s6.6-14.8,14.8-14.8h98.5c8.2,0,14.8,6.6,14.8,14.8S264.5,349.6,256.4,349.6z"/>
<path class="st0" d="M252.5,419.5c-21.1,21.1-21.1,55.5,0,76.6c10.2,10.2,23.8,15.9,38.3,15.9s28.1-5.6,38.3-15.9l31.3-31.3
	l-76.6-76.6L252.5,419.5z"/>
<path class="st0" d="M412.7,336c-10.2-10.2-23.8-15.9-38.3-15.9s-28.1,5.6-38.3,15.9l-31.3,31.3l76.6,76.6l31.3-31.3
	C433.8,391.4,433.8,357.1,412.7,336z"/>
</svg>
